From mkvrg at hd-mkv.me

Ripped and encoded by Sc7

Filename: Eyes of Fire 1983 480p x264 AVC
Title: Eyes of Fire
Original Title: Eyes of Fire
Year: 1983
Release Date: 10/21/1983

Outline: A preacher is accused of adultery and he and his followers are chased
         out of town and become stranded in an isolated forest which is
         haunted by the spirits of long dead Native Americans.

Plot:    A reverend, Will Smythe, and his followers are chased out of town
         after Smythe is accused of adultery and polygamy. Joined by a
         rugged woodsman, Marion Dalton, who wants his cheating wife,
         the group ventures into a valley, where dwells an ancient evil
         spirit. As members of the group start to disappear, the witch-
         bred, insane Leah must discover how to thwart the spirit.
         -Melissa Martin

MPAA Rating: Unk IMDB 6.0 720p Stereo
Genre: Horror / Western

IMDB Rating: 6
IMDB Page: http://www.imdb.com/title/tt0085515/

Director: Avery Crounse
Starring: Dennis Lipscomb
Starring: Guy Boyd
Starring: Rebecca Stanley
Starring: Sally Klein

General
Format                                   : Matroska
Format version                           : Version 2
File size                                : 1.18 GiB
Duration                                 : 1h 25mn
Overall bit rate mode                    : Variable
Overall bit rate                         : 1 970 Kbps
Movie name                               : Eyes Of Fire 1983 DVDRip 480p
Encoded date                             : UTC 2012-02-01 15:17:58
Writing application                      : mkvmerge v4.6.0 ('Still Crazy After All These Years') built on Mar 10 2011 02:50:32
Writing library                          : libebml v1.2.0 + libmatroska v1.1.0

Video
ID                                       : 1
Format                                   : AVC
Format/Info                              : Advanced Video Codec
Format profile                           : High@L4.1
Format settings, CABAC                   : Yes
Format settings, ReFrames                : 4 frames
Codec ID                                 : V_MPEG4/ISO/AVC
Duration                                 : 1h 25mn
Bit rate mode                            : Variable
Bit rate                                 : 1 707 Kbps
Maximum bit rate                         : 25.0 Mbps
Width                                    : 720 pixels
Height                                   : 480 pixels
Display aspect ratio                     : 4:3
Original display aspect ratio            : 4:3
Frame rate                               : 29.970 fps
Standard                                 : NTSC
Color space                              : YUV
Chroma subsampling                       : 4:2:0
Bit depth                                : 8 bits
Scan type                                : Progressive
Bits/(Pixel*Frame)                       : 0.165
Stream size                              : 1.02 GiB (87%)
Writing library                          : x264 core 114 r1924 08d04a4
Encoding settings                        : cabac=1 / ref=4 / deblock=1:-3:-3 / analyse=0x3:0x113 / me=umh / subme=7 / psy=1 / psy_rd=1.00:0.00 / mixed_ref=1 / me_range=16 / chroma_me=1 / trellis=1 / 8x8dct=1 / cqm=0 / deadzone=21,11 / fast_pskip=1 / chroma_qp_offset=-2 / threads=6 / sliced_threads=0 / nr=0 / decimate=1 / interlaced=0 / constrained_intra=0 / bframes=4 / b_pyramid=0 / b_adapt=1 / b_bias=0 / direct=1 / weightb=1 / open_gop=0 / weightp=2 / keyint=300 / keyint_min=30 / scenecut=40 / intra_refresh=0 / rc_lookahead=40 / rc=crf / mbtree=1 / crf=18.0 / qcomp=0.60 / qpmin=0 / qpmax=69 / qpstep=4 / vbv_maxrate=25000 / vbv_bufsize=25000 / crf_max=0.0 / nal_hrd=vbr / ip_ratio=1.40 / aq=1:1.00
Default                                  : Yes
Forced                                   : No

Audio
ID                                       : 2
Format                                   : MPEG Audio
Format version                           : Version 1
Format profile                           : Layer 2
Codec ID                                 : A_MPEG/L2
Codec ID/Hint                            : MP2
Duration                                 : 1h 25mn
Bit rate mode                            : Constant
Bit rate                                 : 224 Kbps
Channel(s)                               : 2 channels
Sampling rate                            : 48.0 KHz
Compression mode                         : Lossy
Stream size                              : 137 MiB (11%)
Default                                  : Yes
Forced                                   : No

Menu
00:00:00.000                             : en:Chapter 1
00:05:59.433                             : en:Chapter 2
00:11:59.433                             : en:Chapter 3
00:17:58.933                             : en:Chapter 4
00:23:58.433                             : en:Chapter 5
00:29:57.933                             : en:Chapter 6
00:35:57.933                             : en:Chapter 7
00:41:57.433                             : en:Chapter 8
00:47:56.933                             : en:Chapter 9
00:53:56.433                             : en:Chapter 10
00:59:56.433                             : en:Chapter 11
01:05:55.933                             : en:Chapter 12
01:11:55.433                             : en:Chapter 13
01:17:55.433                             : en:Chapter 14
01:23:54.933                             : en:Chapter 15
